<?xml version="1.0" encoding="utf-8"?>
<!-- Generator: Adobe Illustrator 19.0.1, SVG Export Plug-In . SVG Version: 6.00 Build 0)  -->
<!DOCTYPE svg PUBLIC "-//W3C//DTD SVG 1.1//EN" "http://www.w3.org/Graphics/SVG/1.1/DTD/svg11.dtd">
<svg version="1.1" id="Layer_1" xmlns="http://www.w3.org/2000/svg" xmlns:xlink="http://www.w3.org/1999/xlink" x="0px" y="0px"
	 viewBox="-530 949 19 23" style="enable-background:new -530 949 19 23;" xml:space="preserve">
<style type="text/css">
	.st0{fill:#F44336;}
	.st1{fill:#3F51B5;}
	.st2{fill:#673AB7;}
	.st3{fill:#FFEB3B;}
	.st4{fill:#4CAF50;}
	.st5{fill:#FF9800;}
</style>
<polygon class="st0" points="-512,965.4 -512,965.4 -512,965.4 "/>
<path class="st1" d="M-513.8,964h-14.8c0.1,0.4,0.2,0.8,0.3,1.2c0.3,0.9,0.7,1.6,1.1,2.3h14.4c0.2-0.4,0.4-0.7,0.5-1.1
	c0.1-0.3,0.2-0.6,0.4-1v0c-0.5-0.2-1-0.5-1.4-0.9C-513.6,964.3-513.7,964.1-513.8,964z"/>
<path class="st2" d="M-526.8,968.3c0.6,0.8,1.1,1.4,1.5,1.8c0.6,0.6,1.2,0.9,1.8,0.8c0.4,0,0.9-0.2,1.6-0.4c0.7-0.3,1.3-0.4,1.8-0.4
	c0.5,0,1.1,0.1,1.8,0.4c0.6,0.3,1.2,0.4,1.7,0.4c0.6,0,1.2-0.3,1.8-0.8c0.4-0.3,0.8-0.9,1.4-1.7c0.2-0.3,0.4-0.6,0.5-0.9h-14.4
	C-527.1,967.7-527,968-526.8,968.3z"/>
<path class="st3" d="M-512.6,957.2c0-0.1-0.1-0.1-0.1-0.2h-14.9c-0.2,0.2-0.4,0.5-0.5,0.8c-0.5,0.8-0.7,1.7-0.8,2.7h14.2
	C-514.6,959.1-513.9,958-512.6,957.2z"/>
<path class="st0" d="M-519.4,951.7c-0.5,0.6-0.8,1.2-1,1.9h2.8c0,0,0.1-0.1,0.1-0.1c0.7-0.9,1.1-1.9,1.1-2.9c0-0.1,0-0.3,0-0.4
	c-0.5,0-1.1,0.2-1.6,0.5C-518.6,950.9-519,951.2-519.4,951.7z"/>
<path class="st4" d="M-513.8,964c-0.6-0.8-1-1.7-1-2.8c0-0.2,0-0.4,0-0.6h-14.2c0,0.3,0,0.6,0,0.9c0,0.8,0.1,1.7,0.3,2.6H-513.8z"/>
<g>
	<path class="st5" d="M-520.5,954.5c0,0.1,0,0.3,0,0.4c1.1,0.1,2.1-0.4,3-1.3h-2.8C-520.5,953.9-520.5,954.2-520.5,954.5z"/>
	<path class="st5" d="M-516.4,955.1c-0.6-0.1-1.4,0.1-2.3,0.4c-1,0.4-1.5,0.5-1.7,0.5c-0.2,0-0.7-0.2-1.5-0.5
		c-0.8-0.3-1.4-0.5-1.9-0.5c-0.9,0-1.7,0.3-2.5,0.7c-0.5,0.3-0.9,0.7-1.3,1.1h14.9C-513.5,955.9-514.8,955.3-516.4,955.1z"/>
</g>
</svg>
