<?xml version="1.0" encoding="utf-8"?>
<!-- Generator: Adobe Illustrator 19.0.1, SVG Export Plug-In . SVG Version: 6.00 Build 0)  -->
<!DOCTYPE svg PUBLIC "-//W3C//DTD SVG 1.1//EN" "http://www.w3.org/Graphics/SVG/1.1/DTD/svg11.dtd">
<svg version="1.1" id="Layer_1" xmlns="http://www.w3.org/2000/svg" xmlns:xlink="http://www.w3.org/1999/xlink" x="0px" y="0px"
	 viewBox="-399 936 200 50" style="enable-background:new -399 936 200 50;" xml:space="preserve">
<style type="text/css">
	.st0{fill:#673AB7;}
	.st1{fill:#818185;}
	.st2{fill:#3F51B5;}
	.st3{fill:#4CAF50;}
	.st4{fill:#FFEB3B;}
	.st5{fill:#FF9800;}
	.st6{fill:#F44336;}
</style>
<g id="logo">
	<g>
		<path d="M-357.2,979c-2.3,0-4.1-0.5-5.6-2l1.3-1.3c1.1,1.1,2.6,1.6,4.3,1.6c2.3,0,3.7-0.8,3.7-2.4c0-1.2-0.7-1.9-2.3-2l-2.3-0.2
			c-2.7-0.2-4.1-1.4-4.1-3.7c0-2.5,2.1-4,5-4c2,0,3.7,0.5,4.9,1.5l-1.3,1.3c-1-0.8-2.2-1.1-3.7-1.1c-2,0-3.1,0.9-3.1,2.3
			c0,1.2,0.7,1.9,2.4,2l2.2,0.2c2.4,0.2,4,1.1,4,3.7C-351.6,977.5-353.9,979-357.2,979z"/>
		<path d="M-345.5,978.8c-2.3,0-3.5-1.6-3.5-3.7v-8.4h-1.7v-1.5h1.7V961h2v4.3h2.9v1.5h-2.9v8.4c0,1.3,0.6,2,1.9,2h1.1v1.7H-345.5z"
			/>
		<path d="M-333.7,978.8v-1.3c-1.1,1.1-2.1,1.5-4,1.5s-3-0.4-3.9-1.3c-0.7-0.7-1-1.7-1-2.8c0-2.4,1.7-4,4.7-4h4.1v-1.3
			c0-2-1-3-3.5-3c-1.8,0-2.6,0.4-3.5,1.6l-1.2-1.2c1.2-1.6,2.6-2,4.8-2c3.7,0,5.5,1.6,5.5,4.6v9.3L-333.7,978.8L-333.7,978.8z
			 M-333.7,972.5h-3.8c-2.1,0-3.1,0.8-3.1,2.4c0,1.6,1,2.3,3.1,2.3c1.2,0,2.2-0.1,3.1-0.9c0.5-0.4,0.7-1.2,0.7-2.4V972.5z"/>
		<path d="M-323.9,979c-3.5,0-6.1-2.3-6.1-7s2.6-7,6.1-7c1.9,0,3.1,0.5,4.5,2l-1.4,1.3c-1-1.1-1.8-1.5-3.1-1.5s-2.5,0.5-3.2,1.6
			c-0.6,0.9-0.9,2-0.9,3.7s0.3,2.8,0.9,3.7c0.7,1,1.8,1.6,3.2,1.6c1.3,0,2.1-0.4,3.1-1.6l1.4,1.3C-320.8,978.5-322,979-323.9,979z"
			/>
		<path d="M-308.4,978.8l-4.3-7l-2.7,3.1v4h-2V959h2v13.3l6.2-7.1h2.5l-4.7,5.2l5.5,8.5L-308.4,978.8L-308.4,978.8z"/>
		<path d="M-295.2,977.3c-0.8,0.9-2.2,1.7-4.3,1.7c-2,0-3.4-0.8-4.3-1.7c-1.2-1.3-1.6-2.9-1.6-5.4s0.3-4,1.6-5.3
			c0.8-0.9,2.2-1.7,4.3-1.7c2,0,3.4,0.8,4.3,1.7c1.2,1.3,1.6,2.9,1.6,5.3C-293.6,974.5-294,976-295.2,977.3z M-297.9,968.7
			c-0.4-0.4-0.9-0.6-1.6-0.6s-1.2,0.2-1.6,0.6c-0.7,0.7-0.8,1.9-0.8,3.3c0,1.4,0.1,2.6,0.8,3.4c0.4,0.4,0.9,0.6,1.6,0.6
			s1.2-0.2,1.6-0.6c0.7-0.7,0.8-1.9,0.8-3.4C-297.1,970.5-297.1,969.3-297.9,968.7z"/>
		<path d="M-285.9,978.8h-2.7l-5.1-13.7h3.6l2.8,8.5l2.8-8.5h3.6L-285.9,978.8z"/>
		<path d="M-277.6,973c0,1.8,1.1,3.1,3,3.1c1.5,0,2.2-0.4,3.1-1.3l2.1,2c-1.4,1.4-2.7,2.2-5.2,2.2c-3.2,0-6.4-1.5-6.4-7.1
			c0-4.5,2.4-7,6-7c3.8,0,6,2.8,6,6.6v1.5L-277.6,973L-277.6,973z M-272.7,969.3c-0.4-0.8-1.1-1.4-2.3-1.4s-1.9,0.6-2.3,1.4
			c-0.2,0.5-0.3,0.9-0.3,1.5h5.2C-272.4,970.2-272.5,969.8-272.7,969.3z"/>
		<path d="M-259.8,968.8c-0.5-0.5-1-0.8-1.8-0.8c-1.1,0-2.2,0.8-2.2,2.5v8.3h-3.4v-13.7h3.4v1.3c0.7-0.8,2-1.5,3.5-1.5
			c1.3,0,2.3,0.3,3.2,1.3L-259.8,968.8z"/>
		<path d="M-251.5,967.8v11.1h-3.4v-11.1h-1.4v-2.6h1.4v-1.7c0-2,1.2-3.9,4-3.9h2v2.9h-1.3c-0.8,0-1.2,0.4-1.2,1.2v1.5h2.5v2.6
			H-251.5z M-243.4,978.8c-2.8,0-4-2-4-3.9v-15.5h3.4v15.2c0,0.8,0.3,1.2,1.2,1.2h1.3v2.9L-243.4,978.8z"/>
		<path d="M-230.8,977.3c-0.8,0.9-2.2,1.7-4.3,1.7c-2,0-3.4-0.8-4.3-1.7c-1.2-1.3-1.6-2.9-1.6-5.4s0.3-4,1.6-5.3
			c0.8-0.9,2.2-1.7,4.3-1.7c2,0,3.4,0.8,4.3,1.7c1.2,1.3,1.6,2.9,1.6,5.3C-229.3,974.5-229.6,976-230.8,977.3z M-233.5,968.7
			c-0.4-0.4-0.9-0.6-1.6-0.6c-0.7,0-1.2,0.2-1.6,0.6c-0.7,0.7-0.8,1.9-0.8,3.3c0,1.4,0.1,2.6,0.8,3.4c0.4,0.4,0.9,0.6,1.6,0.6
			c0.7,0,1.2-0.2,1.6-0.6c0.7-0.7,0.8-1.9,0.8-3.4C-232.7,970.5-232.8,969.3-233.5,968.7z"/>
		<path d="M-213.9,978.8h-2.8l-2.9-8.6l-2.9,8.6h-2.8l-4.2-13.7h3.6l2.2,8.5l2.8-8.5h2.5l2.8,8.5l2.2-8.5h3.6L-213.9,978.8z"/>
	</g>
	<rect x="-393" y="973" class="st0" width="17" height="3"/>
	<polygon class="st1" points="-373,965 -373,979 -396,979 -396,965 -399,965 -399,982 -399,982 -370,982 -370,965 	"/>
	
		<rect x="-392.8" y="967.5" transform="matrix(0.9958 9.191921e-002 -9.191921e-002 0.9958 87.4464 39.4336)" class="st2" width="16.8" height="3"/>
	<polygon class="st3" points="-375.8,967 -392.1,963 -391.4,960 -375.1,964 	"/>
	<polygon class="st4" points="-374.7,962.3 -389.4,954.8 -388,952.3 -373.4,959.8 	"/>
	<polygon class="st5" points="-372.3,958.8 -385.3,948 -383.3,945.8 -370.3,956.5 	"/>
	<polygon class="st6" points="-369.4,955 -378.9,941.7 -376.5,940 -366.9,953.5 	"/>
</g>
</svg>
