<?xml version="1.0" encoding="utf-8"?>
<!-- Generator: Adobe Illustrator 19.0.0, SVG Export Plug-In . SVG Version: 6.00 Build 0)  -->
<!DOCTYPE svg PUBLIC "-//W3C//DTD SVG 1.1//EN" "http://www.w3.org/Graphics/SVG/1.1/DTD/svg11.dtd">
<svg version="1.1" id="Layer_1" xmlns="http://www.w3.org/2000/svg" xmlns:xlink="http://www.w3.org/1999/xlink" x="0px" y="0px"
	 viewBox="-839 297 189.2 41.9" style="enable-background:new -839 297 189.2 41.9;" xml:space="preserve">
<style type="text/css">
	.st0{fill:#673AB7;}
	.st1{fill:#818185;}
	.st2{fill:#3F51B5;}
	.st3{fill:#4CAF50;}
	.st4{fill:#FFEB3B;}
	.st5{fill:#FF9800;}
	.st6{fill:#F44336;}
</style>
<g>
	<path d="M-797.2,336c-2.3,0-4.1-0.5-5.6-2l1.3-1.3c1.1,1.1,2.6,1.6,4.3,1.6c2.3,0,3.7-0.8,3.7-2.4c0-1.2-0.7-1.9-2.3-2l-2.3-0.2
		c-2.7-0.2-4.1-1.4-4.1-3.7c0-2.5,2.1-4,5-4c2,0,3.7,0.5,4.9,1.5l-1.3,1.3c-1-0.8-2.2-1.1-3.7-1.1c-2,0-3.1,0.9-3.1,2.3
		c0,1.2,0.7,1.9,2.4,2l2.2,0.2c2.4,0.2,4,1.1,4,3.7C-791.6,334.5-793.9,336-797.2,336z"/>
	<path d="M-785.5,335.8c-2.3,0-3.5-1.6-3.5-3.7v-8.4h-1.7v-1.5h1.7v-4.3h2v4.3h2.9v1.5h-2.9v8.4c0,1.3,0.6,2,1.9,2h1.1v1.7H-785.5z"
		/>
	<path d="M-773.7,335.8v-1.3c-1.1,1.1-2.1,1.5-4,1.5c-1.9,0-3-0.4-3.9-1.3c-0.7-0.7-1-1.7-1-2.8c0-2.4,1.7-4,4.7-4h4.1v-1.3
		c0-2-1-3-3.5-3c-1.8,0-2.6,0.4-3.5,1.6l-1.2-1.2c1.2-1.6,2.6-2,4.8-2c3.7,0,5.5,1.6,5.5,4.6v9.3L-773.7,335.8L-773.7,335.8z
		 M-773.7,329.5h-3.8c-2.1,0-3.1,0.8-3.1,2.4s1,2.3,3.1,2.3c1.2,0,2.2-0.1,3.1-0.9c0.5-0.4,0.7-1.2,0.7-2.4V329.5z"/>
	<path d="M-763.9,336c-3.5,0-6.1-2.3-6.1-7s2.6-7,6.1-7c1.9,0,3.1,0.5,4.5,2l-1.4,1.3c-1-1.1-1.8-1.5-3.1-1.5
		c-1.3,0-2.5,0.5-3.2,1.6c-0.6,0.9-0.9,2-0.9,3.7c0,1.7,0.3,2.8,0.9,3.7c0.7,1,1.8,1.6,3.2,1.6c1.3,0,2.1-0.4,3.1-1.6l1.4,1.3
		C-760.8,335.5-762,336-763.9,336z"/>
	<path d="M-748.4,335.8l-4.3-7l-2.7,3.1v4h-2V316h2v13.3l6.2-7.1h2.5l-4.7,5.2l5.5,8.5L-748.4,335.8L-748.4,335.8z"/>
	<path d="M-735.2,334.3c-0.8,0.9-2.2,1.7-4.3,1.7c-2,0-3.4-0.8-4.3-1.7c-1.2-1.3-1.6-2.9-1.6-5.4s0.3-4,1.6-5.3
		c0.8-0.9,2.2-1.7,4.3-1.7c2,0,3.4,0.8,4.3,1.7c1.2,1.3,1.6,2.9,1.6,5.3C-733.6,331.5-734,333-735.2,334.3z M-737.9,325.6
		c-0.4-0.4-0.9-0.6-1.6-0.6s-1.2,0.2-1.6,0.6c-0.7,0.7-0.8,1.9-0.8,3.3s0.1,2.6,0.8,3.4c0.4,0.4,0.9,0.6,1.6,0.6s1.2-0.2,1.6-0.6
		c0.7-0.7,0.8-1.9,0.8-3.4C-737.1,327.5-737.1,326.3-737.9,325.6z"/>
	<path d="M-725.9,335.8h-2.7l-5.1-13.7h3.6l2.8,8.5l2.8-8.5h3.6L-725.9,335.8z"/>
	<path d="M-717.6,330c0,1.8,1.1,3.1,3,3.1c1.5,0,2.2-0.4,3.1-1.3l2.1,2c-1.4,1.4-2.7,2.2-5.2,2.2c-3.2,0-6.4-1.5-6.4-7.1
		c0-4.5,2.4-7,6-7c3.8,0,6,2.8,6,6.6v1.5H-717.6z M-712.7,326.2c-0.4-0.8-1.1-1.4-2.3-1.4s-1.9,0.6-2.3,1.4
		c-0.2,0.5-0.3,0.9-0.3,1.5h5.2C-712.4,327.1-712.5,326.7-712.7,326.2z"/>
	<path d="M-699.8,325.8c-0.5-0.5-1-0.8-1.8-0.8c-1.1,0-2.2,0.8-2.2,2.5v8.3h-3.4v-13.7h3.4v1.3c0.7-0.8,2-1.5,3.5-1.5
		c1.3,0,2.3,0.3,3.2,1.3L-699.8,325.8z"/>
	<path d="M-691.5,324.7v11.1h-3.4v-11.1h-1.4v-2.6h1.4v-1.7c0-2,1.2-3.9,4-3.9h2v2.9h-1.3c-0.8,0-1.2,0.4-1.2,1.2v1.5h2.5v2.6
		H-691.5z M-683.4,335.8c-2.8,0-4-2-4-3.9v-15.5h3.4v15.2c0,0.8,0.3,1.2,1.2,1.2h1.3v2.9L-683.4,335.8z"/>
	<path d="M-670.8,334.3c-0.8,0.9-2.2,1.7-4.3,1.7c-2,0-3.4-0.8-4.3-1.7c-1.2-1.3-1.6-2.9-1.6-5.4s0.3-4,1.6-5.3
		c0.8-0.9,2.2-1.7,4.3-1.7c2,0,3.4,0.8,4.3,1.7c1.2,1.3,1.6,2.9,1.6,5.3C-669.3,331.5-669.6,333-670.8,334.3z M-673.5,325.6
		c-0.4-0.4-0.9-0.6-1.6-0.6c-0.7,0-1.2,0.2-1.6,0.6c-0.7,0.7-0.8,1.9-0.8,3.3s0.1,2.6,0.8,3.4c0.4,0.4,0.9,0.6,1.6,0.6
		c0.7,0,1.2-0.2,1.6-0.6c0.7-0.7,0.8-1.9,0.8-3.4C-672.7,327.5-672.8,326.3-673.5,325.6z"/>
	<path d="M-653.9,335.8h-2.8l-2.9-8.6l-2.9,8.6h-2.8l-4.2-13.7h3.6l2.2,8.5l2.8-8.5h2.5l2.8,8.5l2.2-8.5h3.6L-653.9,335.8z"/>
</g>
<rect x="-833" y="329.9" class="st0" width="17" height="3"/>
<polygon class="st1" points="-813,321.9 -813,335.9 -836,335.9 -836,321.9 -839,321.9 -839,338.9 -839,338.9 -810,338.9 -810,321.9 
	"/>
<rect x="-832.8" y="324.5" transform="matrix(-0.9958 -9.192231e-002 9.192231e-002 -0.9958 -1675.2753 574.8433)" class="st2" width="16.8" height="3"/>
<polygon class="st3" points="-815.8,323.9 -832.1,319.9 -831.4,316.9 -815.1,321 "/>
<polygon class="st4" points="-814.7,319.2 -829.4,311.7 -828,309.2 -813.4,316.7 "/>
<polygon class="st5" points="-812.3,315.7 -825.3,304.9 -823.3,302.7 -810.3,313.4 "/>
<polygon class="st6" points="-809.4,312 -818.9,298.6 -816.5,297 -806.9,310.4 "/>
</svg>
