<?xml version="1.0" encoding="utf-8"?>
<!-- Generator: Adobe Illustrator 18.1.1, SVG Export Plug-In . SVG Version: 6.00 Build 0)  -->
<svg version="1.1" xmlns="http://www.w3.org/2000/svg" xmlns:xlink="http://www.w3.org/1999/xlink" x="0px" y="0px"
	 viewBox="-13 53.3 971.7 195.7" enable-background="new -13 53.3 971.7 195.7" xml:space="preserve">
<g id="svg1936" xmlns:svg="http://www.w3.org/2000/svg">
	<g id="g1967" transform="translate(7.081691,7.081144)">
		<g id="XMLID_1_">
			<g>
				<path fill="#221F1F" d="M934.8,64.8c1.4,0,1.7-1,1.7-1.6c0-1.5-1-1.5-1.6-1.5h-1.8v3H934.8z M938.7,62.9c0,2-1.3,2.4-2.1,2.7
					c1.5,0.1,1.6,1.1,1.8,2.5c0.1,0.9,0.3,2.4,0.5,2.9h-2.3c0-0.5-0.4-3.3-0.4-3.5c-0.2-0.6-0.4-0.9-1.1-0.9h-1.9V71h-2.1V60h0.1
					h3.6C936.2,60,938.7,60,938.7,62.9z"/>
				<path fill="#221F1F" d="M925,65.5c0-5.5,4.5-9.8,9.8-9.8c5.3,0,9.8,4.3,9.8,9.8c0,5.4-4.4,9.8-9.8,9.8
					C929.4,75.3,925,71,925,65.5z M926.6,65.5c0,4.5,3.7,8.2,8.2,8.2c1.8,0,3.6-0.6,4.9-1.7c2-1.5,3.3-3.9,3.3-6.6
					c0-4.6-3.7-8.2-8.2-8.2c-1.3,0-2.4,0.3-3.5,0.8C928.5,59.4,926.6,62.2,926.6,65.5z"/>
				<path fill="#221F1F" d="M911.2,68.4c4.3,8.5,4.2,19.7,4.2,29.2l0,57.5c0,1.8-1.5,3.3-3.3,3.5h-8.2c-1.8-0.1-3.2-1.3-3.5-3v-58
					c0-6.8,0.3-14.1-2.4-20.4c-2.8-6.4-8.3-10.3-14.1-10.6c-6.5,0.3-12.5,5.1-16.4,11.5c-5,8.3-4.8,15.7-4.8,25.4v52.3
					c-0.2,1.6-1.6,2.8-3.3,2.9h-8.1c-1.9-0.1-3.5-1.6-3.5-3.5l-0.1-61.4c0-5.6-0.3-12.3-2.9-17.3c-3-5.8-8.4-9.5-14.1-9.8
					c-5.9,0.3-11.8,4.8-15.3,10c-4.5,6.7-5.4,14.9-5.4,23.4v55.1c0,1.8-1.5,3.3-3.4,3.5h-8.2c-1.9-0.1-3.5-1.6-3.5-3.5V59.4
					c0.1-1.7,1.5-3,3.3-3.2h6.8c1.9,0,3.4,1.4,3.6,3.2v13.9c4.9-11.1,13.9-19.7,25.4-19.7h0.7h0.7c12.2,0,21,9,24.4,22
					c5.2-12.9,14.9-22,27.7-22h0.7h0.8C898,53.7,906.7,59.5,911.2,68.4z"/>
				<path fill="#221F1F" d="M745.9,53.7c25.9,0,38.8,26.2,38.8,53.1c0,28.6-14.3,53.7-41.1,53.7H743h-0.7c-26.5,0-38.3-27-38.3-54
					c0-28.4,13.9-52.9,40.6-52.9h0.7H745.9z M763.9,132.8c3.6-8.1,4.3-17.3,4.3-26.2c0-9.6-1-19.7-5.6-28
					c-4.1-7.2-11-11.8-18.4-12.1c-8.2,0.3-15.6,5.9-19.3,14.5c-3.3,7.5-4.4,17.3-4.4,25.6c0,9.3,1.2,20,5,28
					c3.7,7.6,10.9,12.6,18.6,12.9C752.9,147.2,759.8,141.8,763.9,132.8z"/>
				<path fill="#221F1F" d="M691.6,122.1c1.9,0.1,3.6,1.5,3.4,3.2c-3.6,21-16.3,35.2-34.3,35.2h-0.7h-0.7
					c-26.3,0-37.6-26.4-37.6-53.1c0-26.6,11.5-53.8,37.8-53.8h0.7h0.7c18.2,0,31.3,14,34.1,35c0,1.6-1.5,2.9-3.2,3.1l-8.2-0.1
					c-1.7-0.2-2.8-1.7-3.1-3.4c-2-11.7-8.7-21.1-19.9-21.4c-17.8,0.6-22.9,22.6-22.9,39.5c0,16.3,4.3,40.1,22.1,40.6
					c11.9-0.4,18.1-9.9,20.7-22.2c0.5-1.5,1.7-2.7,3.4-2.7L691.6,122.1z"/>
				<path fill="#221F1F" d="M619.3,150.9c0,4.8-4.1,8.7-9.2,8.7s-9.2-3.9-9.2-8.7c0-4.8,4.1-8.7,9.2-8.7S619.3,146.1,619.3,150.9z"
					/>
				<path fill="#221F1F" d="M589.3,95.3v60.2c-0.2,1.7-1.8,3-3.6,3H567c-1.7-0.1-3.1-1.4-3.3-3v-52c0-10.5,1.2-25.8-11.7-25.8
					c-4.5,0-8.7,3-10.8,7.7c-2.6,5.8-3,11.7-3,18.1v51.5c0,1.9-1.7,3.5-3.6,3.5h-18.6c-1.9-0.1-3.3-1.6-3.3-3.5l0-95.7
					c0.2-1.8,1.7-3.1,3.6-3.1h17.3c1.6,0.1,3,1.2,3.3,2.7v14.6h0.3c5.2-13.1,12.5-19.3,25.4-19.3c8.4,0,16.5,3,21.8,11.3
					C589.3,73.2,589.3,86.1,589.3,95.3z"/>
				<path fill="#221F1F" d="M456.1,54.3c27.7,0,42.6,23.7,42.6,54c0,29.2-16.5,52.3-42.6,52.3c-27.2,0-41.9-23.8-41.9-53.3
					C414.2,77.4,429.2,54.3,456.1,54.3z M471.3,108.4c0-8.1-0.3-17.7-2.8-25.4c-2.1-6.6-6.3-9.3-12.2-9.3
					c-13.7,0-14.6,18.7-14.6,30.4c0,11.7-0.2,36.7,14.4,36.7C470.6,140.8,471.3,120.7,471.3,108.4z"/>
				<path fill="#221F1F" d="M405.2,137.9v14.6c0,2-2.2,4.3-4.5,3.1c-18.9-9.9-43.9-11-64.7,0.1c-2.1,1.1-4.4-1.2-4.4-3.2v-13.9
					c0-2.2,0-6,2.3-9.4l36.8-52.7h-32c-2,0-3.5-1.4-3.5-3.4V59.5c0-2.1,1.6-3.5,3.5-3.5h61.3c2,0,3.5,1.4,3.5,3.5v11.7
					c0,2-1.7,4.5-4.6,8.6L367,125.1c11.8-0.3,24.3,1.5,35,7.5C404.4,134,405.1,136,405.2,137.9z"/>
				<path fill="#FF9900" d="M390.1,167.2c3.8,4.8-1,37.6-19.8,53.3c-2.9,2.4-5.6,1.1-4.4-2.1c4.2-10.5,13.7-34.2,9.2-39.9
					c-4.5-5.7-29.6-2.7-40.8-1.4c-3.4,0.4-4-2.6-0.9-4.7C353.5,158.5,386.3,162.5,390.1,167.2z"/>
				<path fill="#221F1F" d="M319.5,141c1.2,1.7,1.5,3.7-0.1,5c-3.8,3.2-10.6,9.1-14.3,12.4l0-0.1c-1.2,1.1-3,1.2-4.4,0.4
					c-6.2-5.1-7.3-7.5-10.7-12.4c-10.2,10.4-17.5,13.6-30.7,13.6c-15.7,0-27.9-9.7-27.9-29.1c0-15.1,8.2-25.4,19.9-30.5
					c10.1-4.5,24.3-5.3,35-6.5v-2.4c0-4.4,0.3-9.7-2.3-13.5c-2.3-3.4-6.6-4.9-10.5-4.9c-7.1,0-13.4,3.6-15,11.2
					c-0.3,1.7-1.5,3.3-3.3,3.4l-18.1-1.9c-1.5-0.3-3.2-1.6-2.8-3.9c4.1-21.9,24-28.5,41.7-28.5c9.1,0,20.9,2.4,28.1,9.3
					c9.1,8.5,8.2,19.8,8.2,32.1v29C312.5,132.5,316.1,136.3,319.5,141z M282.8,132.6c3.7-6.4,3.5-12.5,3.5-19.8v-4
					c-13.5,0-27.7,2.9-27.7,18.8c0,8.1,4.2,13.5,11.3,13.5C275.1,141.1,279.8,137.9,282.8,132.6z"/>
				<path fill="#221F1F" d="M210.4,64.7c5.9,8.1,4.7,19.7,4.7,30l0,60.4c0,1.9-1.6,3.5-3.6,3.5h-18.6c-1.9-0.1-3.4-1.6-3.4-3.5
					v-50.7c0-4,0.4-14.1-0.5-17.9c-1.4-6.4-5.6-8.2-11-8.2c-4.5,0-9.2,3-11.1,7.8c-1.9,4.8-1.7,12.9-1.7,18.3v50.7
					c0,1.9-1.6,3.5-3.6,3.5H143c-1.9-0.1-3.4-1.6-3.4-3.5l0-50.7c0-10.7,1.8-26.4-11.5-26.4c-13.4,0-12.9,15.3-12.9,26.4v50.7
					c0,1.9-1.6,3.5-3.6,3.5H93c-1.8-0.1-3.2-1.5-3.3-3.2V59.7c0-1.9,1.6-3.4,3.6-3.4h17.4c1.8,0.1,3.3,1.5,3.4,3.2V72h0.3
					c4.5-12.1,13.1-17.7,24.5-17.7c11.7,0,19,5.6,24.2,17.7c4.5-12.1,14.8-17.7,25.8-17.7C196.7,54.3,205.2,57.5,210.4,64.7z"/>
				<path fill="#221F1F" d="M75.1,141c1.2,1.7,1.5,3.7-0.1,5c-3.8,3.2-10.6,9.1-14.3,12.4l-0.1-0.1c-1.2,1.1-3,1.2-4.4,0.4
					c-6.2-5.1-7.3-7.5-10.7-12.4c-10.2,10.4-17.5,13.6-30.7,13.6c-15.7,0-27.9-9.7-27.9-29.1c0-15.1,8.2-25.4,19.9-30.5
					c10.1-4.5,24.3-5.3,35.1-6.5v-2.4c0-4.4,0.3-9.7-2.3-13.5c-2.3-3.4-6.6-4.9-10.5-4.9c-7.1,0-13.4,3.6-15,11.2
					c-0.3,1.7-1.5,3.3-3.2,3.4l-18.1-1.9c-1.5-0.3-3.2-1.6-2.8-3.9c4.2-21.9,24-28.5,41.7-28.5c9.1,0,20.9,2.4,28.1,9.3
					c9.1,8.5,8.2,19.8,8.2,32.1v29C68.1,132.5,71.7,136.3,75.1,141z M38.4,132.6c3.7-6.4,3.5-12.5,3.5-19.8v-4
					c-13.5,0-27.7,2.9-27.7,18.8c0,8.1,4.2,13.5,11.3,13.5C30.8,141.1,35.5,137.9,38.4,132.6z"/>
			</g>
			<g>
			</g>
		</g>
	</g>
	<g>
		<path fill="#750787" d="M83.8,177c-3.9-2.3-6.9,1.7-3.6,4.7c41.7,37.7,96.9,60.3,158.1,60.3c35,0,74.5-8.8,106.8-25.6V201
			c-34.2,12.1-70.1,17.9-103.2,17.9C184.5,218.9,128.8,203.2,83.8,177z"/>
	</g>
	<path fill="#004DFF" d="M238.3,242c43.7,0,94.4-13.8,129.4-39.6c5.8-4.3,0.8-10.7-5.1-8.2c-39.2,16.6-81.9,24.7-120.7,24.7
		c-38.3,0-75.8-7-109.9-19.4v17.6C163.9,233.1,199.9,242,238.3,242z"/>
	<path fill="#008026" d="M238.3,242c43.7,0,94.4-13.8,129.4-39.6c5.8-4.3,0.8-10.7-5.1-8.2c-39.2,16.6-81.9,24.7-120.7,24.7
		c-19.2,0-38.2-1.8-56.6-5.1v22.3C202.3,240,220.1,242,238.3,242z"/>
	<path fill="#FFED00" d="M367.7,202.4c5.8-4.3,0.8-10.7-5.1-8.2c-39.2,16.6-81.9,24.7-120.7,24.7c-1.1,0-2.2,0-3.4,0V242
		C282.2,241.9,332.8,228.2,367.7,202.4z"/>
	<path fill="#FF8C00" d="M367.7,202.4c5.8-4.3,0.8-10.7-5.1-8.2c-22.9,9.7-47,16.5-70.7,20.4v21
		C319.6,229.3,346.5,218.1,367.7,202.4z"/>
	<path fill="#E40303" d="M367.7,202.4c5.8-4.3,0.8-10.7-5.1-8.2c-5.8,2.4-11.6,4.7-17.5,6.8v15.4
		C353.2,212.2,360.8,207.6,367.7,202.4z"/>
	<g>
		<path fill="none" d="M371.1,170.2h9.9C378,170,374.6,169.9,371.1,170.2z"/>
		<path fill="none" d="M345.2,176.9c-1.6,0.8-3.1,1.8-4.6,2.8c-3.1,2.2-2.6,5.1,0.9,4.7c1.1-0.1,2.4-0.3,3.7-0.4V176.9z"/>
		<path fill="#E40303" d="M382.3,185.8c4.5,5.7-5,29.4-9.2,39.9c-1.3,3.2,1.5,4.5,4.3,2.1c18.8-15.7,23.6-48.6,19.8-53.4
			c-1.6-1.9-7.9-3.7-16.2-4.3h-9.9c-8.6,0.5-17.9,2.5-26,6.7v7.1C357.5,182.6,378.3,180.6,382.3,185.8z"/>
	</g>
</g>
<g id="Layer_2">
</g>
</svg>
